<svg width="228" height="65" viewBox="0 0 228 65" fill="blue" xmlns="http://www.w3.org/2000/svg">
<path fill-rule="evenodd" clip-rule="evenodd" d="M41.9747 24.3962L0 0V24.3962V65L55.9662 32.5853L41.9747 24.3962ZM38.9033 25.42L38.2209 24.9081C32.5902 26.2729 26.9594 29.8557 21.158 29.8557C14.8448 29.8557 8.70212 25.5906 2.38885 24.567V60.7349L51.1887 32.4147L41.1216 26.6141L38.9033 25.42Z" fill="white"/>
<path d="M91.1555 54.1731V51.9548H92.6912C93.8856 51.9548 94.7387 51.1017 94.7387 50.0779C94.7387 49.0542 94.0562 48.2011 92.6912 48.2011H89.9612V54.1731H91.1555ZM92.5206 50.9311H91.1555V49.0542H92.5206C93.0325 49.0542 93.5443 49.3954 93.5443 50.0779C93.5443 50.5898 93.2031 50.9311 92.5206 50.9311ZM107.365 54.1731L105.83 51.7842C106.512 51.6136 107.195 51.1017 107.195 50.0779C107.195 48.8835 106.341 48.2011 105.147 48.2011H102.417V54.1731H103.441V51.9548H104.465L105.83 54.1731H107.365ZM105.147 50.9311H103.782V49.0542H105.147C105.659 49.0542 106.171 49.3954 106.171 50.0779C106.171 50.5898 105.83 50.9311 105.147 50.9311ZM118.456 54.3437C120.333 54.3437 121.528 52.9788 121.528 51.2725C121.528 49.3956 120.333 48.2011 118.456 48.2011C116.579 48.2011 115.385 49.5662 115.385 51.2725C115.385 52.9788 116.579 54.3437 118.456 54.3437ZM118.456 53.3199C117.262 53.3199 116.409 52.2961 116.409 51.1017C116.409 49.9073 117.262 48.8836 118.456 48.8836C119.651 48.8836 120.504 49.7366 120.504 51.1017C120.333 52.4667 119.651 53.3199 118.456 53.3199ZM131.936 54.1731C133.813 54.1731 135.007 52.9786 135.007 51.1017C135.007 49.3954 133.813 48.0305 131.936 48.0305H129.718V54.0025H131.936V54.1731ZM131.936 53.3199H130.741V49.2248H131.936C133.301 49.2248 133.983 50.0781 133.983 51.2725C133.983 52.2962 133.13 53.3199 131.936 53.3199ZM145.927 54.3437C147.634 54.3437 148.487 53.3199 148.487 51.7842V48.2011H147.463V51.7842C147.463 52.808 146.951 53.3199 145.927 53.3199C144.904 53.3199 144.392 52.6374 144.392 51.7842V48.2011H143.368V51.7842C143.197 53.3199 144.05 54.3437 145.927 54.3437ZM159.748 54.3437C160.943 54.3437 161.625 53.6613 162.137 52.9788L161.284 52.4668C160.943 52.9787 160.431 53.3199 159.748 53.3199C158.554 53.3199 157.701 52.4667 157.701 51.1017C157.701 49.9073 158.554 48.8836 159.748 48.8836C160.431 48.8836 160.943 49.2249 161.284 49.7368L162.137 49.2248C161.625 48.5423 160.943 47.8599 159.748 47.8599C158.042 47.8599 156.507 49.0542 156.507 50.9311C156.507 52.808 158.042 54.3437 159.748 54.3437ZM172.716 54.1731V49.0542H174.593V48.2011H169.815V49.0542H171.692V54.1731H172.716ZM183.807 54.1731V48.2011H182.783V54.1731H183.807ZM195.069 54.3437C196.946 54.3437 198.14 52.9788 198.14 51.2725C198.14 49.3956 196.946 48.2011 195.069 48.2011C193.192 48.2011 191.997 49.5662 191.997 51.2725C191.997 52.9788 193.192 54.3437 195.069 54.3437ZM195.069 53.3199C193.874 53.3199 193.021 52.2961 193.021 51.1017C193.021 49.9073 193.874 48.8836 195.069 48.8836C196.263 48.8836 197.116 49.7366 197.116 51.1017C196.945 52.4667 196.263 53.3199 195.069 53.3199ZM211.449 54.1731V48.2011H210.425V52.4668L207.354 48.2011H206.33V54.1731H207.354V49.9074L210.425 54.1731H211.449Z" fill="white"/>
<path d="M73.5808 17.8335V36.4293H81.0885C85.1836 36.4293 87.9137 34.8939 87.9137 31.3112C87.9137 28.9228 86.5486 27.558 84.6717 26.8756C86.378 26.3637 87.4019 24.8283 87.4019 22.781C87.4019 19.1983 84.5012 17.8335 80.7474 17.8335H73.5808ZM81.0885 28.0697C83.8186 28.0697 85.6956 28.7522 85.6956 31.3112C85.6956 33.8703 83.8186 34.5527 81.0885 34.5527H75.7991V28.0697H81.0885ZM80.7474 19.8808C83.3068 19.8808 85.3543 20.5631 85.3543 22.9516C85.3543 25.5106 83.3068 26.0225 80.7474 26.0225H75.7991V19.8808H80.7474ZM102.417 17.8335H100.199V36.4293H102.417V17.8335ZM124.428 17.6629C118.968 17.6629 114.873 21.5867 114.873 27.2167C114.873 33.1878 119.48 36.7707 124.428 36.7707C130.059 36.7707 133.472 32.5054 133.472 27.0461C133.472 26.8755 133.472 26.705 133.472 26.5344H125.281V28.5816H131.083C130.742 32.3349 128.353 34.7233 124.428 34.7233C120.333 34.7233 117.091 31.6524 117.091 27.2167C117.091 22.781 120.333 19.7103 124.428 19.7103C126.817 19.7103 128.694 20.7339 130.059 22.2693L131.595 20.7339C129.888 18.8572 127.329 17.6629 124.428 17.6629ZM158.042 26.1931H147.804V20.0514H158.554V18.0042H145.757V36.5999H147.975V28.2405H158.213V26.1931H158.042ZM173.058 17.8335H170.839V36.4293H173.058V17.8335ZM199.676 19.7103C197.969 18.516 195.751 17.6629 193.021 17.6629C189.097 17.6629 186.025 19.7103 186.025 23.1223C186.025 26.1932 188.414 27.7285 191.486 28.0697L193.363 28.2405C196.263 28.5817 197.799 29.4346 197.799 31.3112C197.799 33.5291 195.581 34.7233 192.68 34.7233C190.291 34.7233 187.902 33.6997 186.537 32.6761L185.343 34.3822C187.049 35.747 189.95 36.7707 192.68 36.7707C196.775 36.7707 200.017 34.8939 200.017 31.1406C200.017 27.8992 197.287 26.5343 194.216 26.1931L192.509 26.0225C189.609 25.6813 188.244 24.6576 188.244 22.9516C188.244 20.9043 190.291 19.5395 193.021 19.5395C195.239 19.5395 197.116 20.2219 198.652 21.2455L199.676 19.7103ZM214.521 17.8335H212.302V36.4293H214.521V28.0697H225.782V36.4293H228V17.8335H225.782V26.0225H214.521V17.8335Z" fill="white"/>
</svg>
