<?xml version="1.0" encoding="utf-8"?>
<!-- Generator: Adobe Illustrator 21.1.0, SVG Export Plug-In . SVG Version: 6.00 Build 0)  -->
<svg version="1.1" id="Слой_1" xmlns="http://www.w3.org/2000/svg" xmlns:xlink="http://www.w3.org/1999/xlink" x="0px" y="0px"
	 viewBox="0 0 70 100" style="enable-background:new 0 0 70 100;" xml:space="preserve">
<style type="text/css">
	.st0{fill:#FF4426;}
	.st1{fill:#F83000;}
	.st2{fill:#E7FFE3;}
</style>
<g>
	<g>
		<g>
			<path class="st0" d="M34.5,60L34.5,60C19.9,60,8,48.1,8,33.5v0C8,18.9,19.9,7,34.5,7h0C49.1,7,61,18.9,61,33.5v0
				C61,48.1,49.1,60,34.5,60z"/>
		</g>
		<path class="st0" d="M34.5,73L34.5,73c-1.9,0-3.5-1.6-3.5-3.5v-10c0-1.9,1.6-3.5,3.5-3.5h0c1.9,0,3.5,1.6,3.5,3.5v10
			C38,71.4,36.4,73,34.5,73z"/>
		<path class="st1" d="M34.5,91L34.5,91c-1.9,0-3.5-1.6-3.5-3.5l0,0c0-1.9,1.6-3.5,3.5-3.5h0c1.9,0,3.5,1.6,3.5,3.5l0,0
			C38,89.4,36.4,91,34.5,91z"/>
	</g>
	<path class="st2" d="M34.5,37L34.5,37c-1.9,0-3.5-1.6-3.5-3.5v0c0-1.9,1.6-3.5,3.5-3.5h0c1.9,0,3.5,1.6,3.5,3.5v0
		C38,35.4,36.4,37,34.5,37z"/>
</g>
</svg>
